<?xml version="1.0" encoding="UTF-8"?>
<svg version="1.1" xmlns="http://www.w3.org/2000/svg" width="1024" height="1024">
<path d="M0 0 C337.92 0 675.84 0 1024 0 C1024 337.92 1024 675.84 1024 1024 C686.08 1024 348.16 1024 0 1024 C0 686.08 0 348.16 0 0 Z " fill="#000000" transform="translate(0,0)"/>
<path d="M0 0 C0.84691406 -0.02449219 1.69382812 -0.04898437 2.56640625 -0.07421875 C8.1228141 -0.10014289 11.39623161 0.59726866 15.75 4.375 C17.83010944 7.01128843 19.75 9.93591102 19.75 13.375 C20.36488281 12.95347656 20.97976563 12.53195312 21.61328125 12.09765625 C22.82564453 11.27587891 22.82564453 11.27587891 24.0625 10.4375 C24.86300781 9.89222656 25.66351562 9.34695313 26.48828125 8.78515625 C30.02612589 6.57934983 32.79242987 6.23809746 36.875 6.25 C37.76445313 6.24742187 38.65390625 6.24484375 39.5703125 6.2421875 C41.75 6.375 41.75 6.375 42.75 7.375 C42.84959621 9.21659023 42.88080411 11.06196967 42.8828125 12.90625 C42.88410156 14.02644531 42.88539063 15.14664062 42.88671875 16.30078125 C42.88285156 17.48027344 42.87898438 18.65976562 42.875 19.875 C42.87886719 21.05449219 42.88273437 22.23398437 42.88671875 23.44921875 C42.88478516 25.12951172 42.88478516 25.12951172 42.8828125 26.84375 C42.88168457 27.87951172 42.88055664 28.91527344 42.87939453 29.98242188 C42.75 32.375 42.75 32.375 41.75 33.375 C40.06816052 33.60787008 38.3787584 33.78764166 36.6875 33.9375 C35.76839844 34.02128906 34.84929687 34.10507812 33.90234375 34.19140625 C33.19207031 34.25199219 32.48179687 34.31257813 31.75 34.375 C32.61625 36.07269531 32.61625 36.07269531 33.5 37.8046875 C34.25020991 39.28635207 35.00019847 40.76812873 35.75 42.25 C36.1315625 42.99636719 36.513125 43.74273437 36.90625 44.51171875 C37.2671875 45.22714844 37.628125 45.94257813 38 46.6796875 C38.50273438 47.6694458 38.50273438 47.6694458 39.015625 48.67919922 C39.75 50.375 39.75 50.375 39.75 52.375 C40.905 52.045 42.06 51.715 43.25 51.375 C53.54294838 48.87374157 63.80768559 50.87237786 73 56.0625 C82.83823037 62.48972273 89.19414041 70.50677984 92.0625 82 C93.99133459 92.74903935 91.86796585 102.84053827 86.0625 112.1875 C82.62823676 116.95485771 78.28270411 120.67832798 73.75 124.375 C74.64307861 124.41258423 74.64307861 124.41258423 75.55419922 124.45092773 C78.24469136 124.56677494 80.9348234 124.68955196 83.625 124.8125 C84.56214844 124.85181641 85.49929688 124.89113281 86.46484375 124.93164062 C87.36074219 124.97353516 88.25664063 125.01542969 89.1796875 125.05859375 C90.00710449 125.09525146 90.83452148 125.13190918 91.68701172 125.16967773 C93.75 125.375 93.75 125.375 95.75 126.375 C94.875 131.25 94.875 131.25 93.75 132.375 C91.52103587 132.47493884 89.28882888 132.50240408 87.05762577 132.50363445 C86.3462658 132.50538749 85.63490583 132.50714053 84.90198949 132.50894669 C82.48811268 132.51364541 80.0742951 132.51113133 77.66041565 132.50871277 C75.92443652 132.5105788 74.18845781 132.51287866 72.45247978 132.51557809 C67.65853302 132.52172825 62.86460361 132.52155874 58.0706538 132.52038372 C52.90970962 132.52018052 47.74877114 132.52569069 42.58782959 132.53044128 C32.46793791 132.53876592 22.34805205 132.54149694 12.22815723 132.54205366 C4.00689561 132.54252795 -4.21436407 132.54457833 -12.43562508 132.54775429 C-35.71668603 132.55656569 -58.99774237 132.56117289 -82.27880501 132.56042381 C-83.5352393 132.56038386 -84.79167359 132.5603439 -86.08618164 132.56030273 C-87.34414034 132.56026185 -88.60209903 132.56022097 -89.89817769 132.56017885 C-110.29542862 132.55977221 -130.6926611 132.56934505 -151.08990669 132.5834411 C-172.00647885 132.59778262 -192.92304201 132.60471252 -213.83961922 132.60384732 C-225.59362794 132.60351459 -237.34761732 132.60629499 -249.10162163 132.61702538 C-259.10775386 132.62610118 -269.11385799 132.6283298 -279.11999255 132.62151595 C-284.23001433 132.61823593 -289.33998211 132.61824703 -294.44999886 132.6268692 C-299.12118111 132.6346702 -303.79226598 132.63336913 -308.46344567 132.62458507 C-310.15994124 132.62303583 -311.85644385 132.62491903 -313.55293112 132.63044515 C-315.84600297 132.63742414 -318.13872537 132.63227638 -320.43178463 132.62388897 C-321.70938119 132.62410634 -322.98697775 132.62432371 -324.30328935 132.62454766 C-327.25 132.375 -327.25 132.375 -329.25 130.375 C-328.71428571 126.83928571 -328.71428571 126.83928571 -327.25 125.375 C-323.785 124.88 -323.785 124.88 -320.25 124.375 C-320.25 108.865 -320.25 93.355 -320.25 77.375 C-317.775 76.88 -317.775 76.88 -315.25 76.375 C-313.0962818 78.5287182 -313.52091514 83.70245156 -313.26367188 86.74023438 C-312.89463347 90.08117501 -312.4498742 92.11884653 -310.36328125 94.79296875 C-306.80071477 97.45995475 -303.84538483 97.50174817 -299.53201294 97.50871277 C-298.34030487 97.51297775 -297.1485968 97.51724274 -295.92077637 97.52163696 C-294.61161255 97.52118378 -293.30244873 97.52073059 -291.95361328 97.52026367 C-290.56228546 97.52325553 -289.17095847 97.52665813 -287.77963257 97.53044128 C-283.99859892 97.53928305 -280.21758789 97.54161948 -276.4365449 97.54225707 C-273.28049635 97.5432063 -270.12445308 97.54688479 -266.96840656 97.55042917 C-259.5220665 97.55857451 -252.07573853 97.56101334 -244.62939453 97.56030273 C-236.9478346 97.559702 -229.2663449 97.57025268 -221.58480275 97.5860464 C-214.9902355 97.59912212 -208.39569121 97.60448661 -201.8011111 97.60384732 C-197.86230748 97.60359233 -193.92356626 97.6064441 -189.98477554 97.61702538 C-186.27969886 97.62670683 -182.57474423 97.62678524 -178.86966324 97.61950874 C-176.86319641 97.61796457 -174.85672959 97.62630945 -172.85028076 97.63494873 C-171.65293304 97.63075424 -170.45558533 97.62655975 -169.22195435 97.62223816 C-168.18330294 97.62278293 -167.14465153 97.62332769 -166.07452583 97.62388897 C-163.08608008 97.36055586 -160.93171315 96.70150412 -158.25 95.375 C-155.23431132 91.35102635 -155.86101028 86.19113074 -155.69140625 81.37109375 C-155.25 78.375 -155.25 78.375 -153.96484375 76.41015625 C-152.25 75.375 -152.25 75.375 -150.14282227 75.81030273 C-149.51819092 75.99665283 -148.89355957 76.18300293 -148.25 76.375 C-148.22470411 83.03189282 -148.20715604 89.6887733 -148.19506836 96.34570312 C-148.19003074 98.61165836 -148.18320048 100.87761033 -148.17456055 103.14355469 C-148.16247004 106.39519047 -148.15676608 109.64678339 -148.15234375 112.8984375 C-148.14460182 114.42505508 -148.14460182 114.42505508 -148.13670349 115.98251343 C-148.13662796 116.92333771 -148.13655243 117.86416199 -148.13647461 118.83349609 C-148.134254 119.66400482 -148.13203339 120.49451355 -148.12974548 121.35018921 C-148.25 123.375 -148.25 123.375 -149.25 125.375 C-133.905 124.88 -133.905 124.88 -118.25 124.375 C-120.89 122.395 -123.53 120.415 -126.25 118.375 C-134.22997945 109.51722281 -136.98871468 98.71279863 -136.6328125 87.02734375 C-135.39737173 75.24023028 -129.37995352 66.42003777 -120.46875 58.9140625 C-111.48669459 52.68355223 -101.02708234 51.2121715 -90.40234375 52.80078125 C-80.23921946 55.13072395 -73.9251009 60.99455085 -67.66015625 69.06640625 C-66.02808771 71.73829686 -65.1388941 74.38196044 -64.25 77.375 C-77.19868586 78.16348561 -77.19868586 78.16348561 -81.25 75.125 C-82.24 73.76375 -82.24 73.76375 -83.25 72.375 C-90.23586659 67.34517606 -95.75663258 66.49566233 -104.25 67.375 C-111.39518786 69.41790587 -115.39881582 72.99314751 -119.19140625 79.2890625 C-122.10144705 85.02323884 -121.81393591 91.09008265 -121.25 97.375 C-120.22231317 100.39733354 -118.93158604 102.62331375 -117.25 105.375 C-116.92 106.365 -116.59 107.355 -116.25 108.375 C-114.50132517 109.45931094 -114.50132517 109.45931094 -112.25 110.375 C-111.26 110.890625 -110.27 111.40625 -109.25 111.9375 C-103.08760305 114.8903152 -96.8034871 115.41529212 -90.25 113.3125 C-83.99824107 110.71789649 -79.25154388 106.37808776 -76.25 100.375 C-71.3 100.375 -66.35 100.375 -61.25 100.375 C-64.20717068 111.33392664 -69.64357795 116.99806681 -78.25 124.375 C-41.62 124.375 -4.99 124.375 32.75 124.375 C29.12 121.075 25.49 117.775 21.75 114.375 C15.46967712 104.78924403 12.75851665 95.6830523 14.140625 84.21484375 C16.01922175 75.46010122 19.5793328 67.34259012 27 62.0625 C27.9075 61.505625 28.815 60.94875 29.75 60.375 C32.49563767 64.21889273 34.94848466 67.66609739 35.75 72.375 C34.0625 74.6875 34.0625 74.6875 31.75 77.375 C28.21322663 85.13829093 27.7716156 92.13227144 30.71484375 100.16796875 C33.88996369 106.93756408 38.84298628 110.7743835 45.75 113.375 C53.19178477 115.54251013 59.77882154 114.45248761 66.75 111.375 C72.61445236 107.90964179 75.64549192 101.68852424 77.75 95.375 C78.56705046 88.07512298 77.53003215 81.72119482 73.75 75.375 C69.14181895 69.84102185 63.78705333 66.73083807 56.75 65.375 C54.9882013 65.30573409 53.22392214 65.28374239 51.4609375 65.30859375 C50.5745459 65.31818115 49.6881543 65.32776855 48.77490234 65.33764648 C48.10668457 65.34997314 47.4384668 65.3622998 46.75 65.375 C48.51671692 69.1061304 50.28909369 72.834545 52.0625 76.5625 C52.56201172 77.61759766 53.06152344 78.67269531 53.57617188 79.75976562 C54.06279297 80.78134766 54.54941406 81.80292969 55.05078125 82.85546875 C55.49591064 83.79285889 55.94104004 84.73024902 56.3996582 85.69604492 C57.72385779 88.42500797 57.72385779 88.42500797 59.43823242 91.07543945 C60.75 93.375 60.75 93.375 60.4375 95.6875 C60.0971875 96.5228125 60.0971875 96.5228125 59.75 97.375 C58.1 97.705 56.45 98.035 54.75 98.375 C50.53358288 90.05377679 46.41176008 81.69417263 42.40234375 73.27099609 C37.86813571 63.74597019 33.2357979 54.30558284 28.26489258 45.00048828 C25.60544965 40.02176998 23.05392015 35.00217526 20.5625 29.9375 C15.23674369 18.39997927 15.23674369 18.39997927 7.75 8.375 C5.81742145 8.00668919 5.81742145 8.00668919 3.6171875 7.9609375 C2.40869141 7.90292969 2.40869141 7.90292969 1.17578125 7.84375 C0.33402344 7.8128125 -0.50773437 7.781875 -1.375 7.75 C-2.64923828 7.69199219 -2.64923828 7.69199219 -3.94921875 7.6328125 C-6.04911684 7.53843506 -8.14952891 7.45562414 -10.25 7.375 C-10.875 5 -10.875 5 -11.25 2.375 C-8.0592843 -0.8157157 -4.34032939 0.00648779 0 0 Z " fill="#FFFFFF" transform="translate(624.25,390.625)"/>
<path d="M0 0 C8.69609576 7.23466856 18.98219477 17.01862283 21.8125 28.33984375 C-29.9975 28.33984375 -81.8075 28.33984375 -135.1875 28.33984375 C-124.65877027 7.28238428 -108.89984303 -6.51261834 -86.89453125 -14.91796875 C-57.13687243 -24.70428773 -24.64371073 -19.28498717 0 0 Z " fill="#FDFDFD" transform="translate(596.1875,354.66015625)"/>
<path d="M0 0 C6.765 -0.061875 13.53 -0.12375 20.5 -0.1875 C22.61986328 -0.21481201 24.73972656 -0.24212402 26.92382812 -0.27026367 C28.62629631 -0.27903521 30.32877084 -0.28667756 32.03125 -0.29296875 C33.3301416 -0.3159906 33.3301416 -0.3159906 34.65527344 -0.33947754 C41.65227298 -0.34245583 47.25199125 0.74052614 52.8125 5.3125 C57.16524703 10.66016064 58.51399973 14.78578095 58.2890625 21.60546875 C57.62446359 27.11086241 54.50248982 30.89363262 51 35 C51.928125 35.5775 52.85625 36.155 53.8125 36.75 C57.71697689 39.50610134 59.4982421 41.49472629 61 46 C61.94599075 58.60714597 61.94599075 58.60714597 58 64 C50.90313327 71.09686673 43.29906571 72.44506136 33.59375 72.51171875 C32.7368457 72.52835571 31.87994141 72.54499268 30.99707031 72.56213379 C27.83162346 72.61946056 24.66576763 72.65206744 21.5 72.6875 C10.8575 72.8421875 10.8575 72.8421875 0 73 C0 48.91 0 24.82 0 0 Z " fill="#FFFFFF" transform="translate(274,565)"/>
<path d="M0 0 C1.26188896 -0.01292336 1.26188896 -0.01292336 2.54927063 -0.02610779 C5.3228759 -0.04876262 8.09547048 -0.0420304 10.86914062 -0.03295898 C12.80058085 -0.03819451 14.73201851 -0.04447073 16.66345215 -0.05174255 C20.70853723 -0.06214565 24.75327051 -0.05758615 28.79833984 -0.04296875 C33.98051057 -0.02577454 39.16157321 -0.04928452 44.3436203 -0.08445835 C48.33110899 -0.10642379 52.31833214 -0.10499305 56.30586243 -0.09669304 C58.21642777 -0.09587318 60.12701255 -0.10274325 62.03752136 -0.11746407 C64.7093002 -0.13489595 67.37908255 -0.1203803 70.05078125 -0.09765625 C71.23230522 -0.11519455 71.23230522 -0.11519455 72.43769836 -0.13308716 C76.4471668 -0.06374573 78.28468293 0.33872763 81.4412384 2.89221191 C83.64189544 5.68109322 85.34776535 8.42683613 87.00585938 11.56860352 C87.91561523 13.27693359 87.91561523 13.27693359 88.84375 15.01977539 C89.46696298 16.21174585 90.09000831 17.40380398 90.71289062 18.59594727 C91.34683218 19.79234783 91.98159128 20.98831556 92.6171875 22.18383789 C94.9631944 26.61239637 97.30207586 31.04177325 99.52539062 35.53344727 C97.01363898 36.78932309 95.31302162 36.6564966 92.50143433 36.65370178 C91.43850159 36.65507645 90.37556885 36.65645111 89.28042603 36.65786743 C88.10942352 36.65427216 86.93842102 36.65067688 85.73193359 36.64697266 C84.50269165 36.64711868 83.27344971 36.64726471 82.00695801 36.64741516 C78.63112721 36.64683681 75.25535715 36.64181263 71.87953711 36.6348412 C68.3534599 36.62860085 64.82738193 36.62800333 61.30130005 36.6268158 C54.62190738 36.6237045 47.94253104 36.61549381 41.26314557 36.60546631 C33.65986038 36.59429893 26.05657442 36.58879314 18.45328307 36.58377087 C2.8106428 36.57331104 -12.83198119 36.55571548 -28.47460938 36.53344727 C-28.80460937 35.87344727 -29.13460938 35.21344727 -29.47460938 34.53344727 C-28.47657325 32.25129424 -27.42204665 30.10665558 -26.24804688 27.91625977 C-25.90335358 27.26269501 -25.55866028 26.60913025 -25.20352173 25.9357605 C-24.46935628 24.54997234 -23.73097612 23.16641025 -22.98876953 21.78491211 C-21.86167833 19.68097632 -20.75537034 17.56702983 -19.65039062 15.45141602 C-18.93418721 14.10570085 -18.21677657 12.76062737 -17.49804688 11.41625977 C-17.00708023 10.47231857 -17.00708023 10.47231857 -16.50619507 9.50930786 C-12.41271125 1.98730334 -8.39476587 -0.06954987 0 0 Z " fill="#FDFDFD" transform="translate(355.474609375,380.466552734375)"/>
<path d="M0 0 C26.07 0 52.14 0 79 0 C80.14500652 4.58002609 79.6080333 5.95419916 78.05078125 10.3046875 C77.61443359 11.52800781 77.17808594 12.75132812 76.72851562 14.01171875 C76.49559814 14.6464209 76.26268066 15.28112305 76.02270508 15.93505859 C75.31915249 17.85682858 74.63594603 19.78493712 73.95507812 21.71484375 C68.96041349 35.54286724 68.96041349 35.54286724 64.00930786 39.65226746 C59.58320305 41.63451912 55.49837034 41.39373457 50.7019043 41.34057617 C49.66729568 41.34101425 48.63268707 41.34145233 47.56672668 41.34190369 C44.15236437 41.3398163 40.73849513 41.31648698 37.32421875 41.29296875 C34.95482145 41.28737263 32.58542069 41.28310261 30.21601868 41.28010559 C23.98361608 41.26865813 17.75142364 41.23919148 11.519104 41.20599365 C5.15794721 41.17529084 -1.20324358 41.16159978 -7.56445312 41.14648438 C-20.04306102 41.11432194 -32.52151302 41.06312653 -45 41 C-44.67 37.04 -44.34 33.08 -44 29 C-42.44571289 28.9906543 -40.89142578 28.98130859 -39.29003906 28.97167969 C-33.52737693 28.93182975 -27.76525146 28.866084 -22.00292969 28.79248047 C-19.50820811 28.76424201 -17.01339658 28.74304188 -14.51855469 28.72900391 C-10.93377534 28.70761501 -7.35008082 28.66098292 -3.765625 28.609375 C-2.09043793 28.60753204 -2.09043793 28.60753204 -0.38140869 28.60565186 C0.65936829 28.58593323 1.70014526 28.5662146 2.77246094 28.54589844 C3.68735291 28.53701599 4.60224487 28.52813354 5.54486084 28.51898193 C8.77594585 27.83597595 9.97795942 26.56475901 12 24 C12.65743327 20.53203951 12.77269556 18.23710676 10.859375 15.17382812 C9.31218199 13.28258824 7.69304668 11.51168371 6 9.75 C4.86873414 8.54229725 3.7434191 7.3289844 2.625 6.109375 C2.12226562 5.58311523 1.61953125 5.05685547 1.1015625 4.51464844 C0 3 0 3 0 0 Z " fill="#FFFFFF" transform="translate(558,444)"/>
<path d="M0 0 C0.85142578 -0.02449219 1.70285156 -0.04898438 2.58007812 -0.07421875 C10.40103531 -0.10995808 16.03483539 2.29305168 22.5 6.5625 C26.77008181 11.03119027 29.00384641 15.75793637 29.4375 21.9375 C29.355 22.741875 29.2725 23.54625 29.1875 24.375 C15.46893713 24.59826775 15.46893713 24.59826775 11.1875 23.375 C8.875 20.375 8.875 20.375 7.1875 17.375 C4.59996844 16.08123422 2.63791015 16.20667603 -0.25 16.1875 C-1.21808594 16.17332031 -2.18617188 16.15914062 -3.18359375 16.14453125 C-6.04516727 16.18350549 -6.04516727 16.18350549 -8.8125 18.375 C-9.06265873 21.95857241 -9.06265873 21.95857241 -8.8125 25.375 C-4.19975286 26.83866015 0.4115719 28.21945965 5.1328125 29.2890625 C15.74643978 31.70697829 23.65042331 34.26271129 30.1875 43.375 C32.14961791 49.26135373 32.204486 55.97735577 29.625 61.6875 C25.93836674 67.97797912 20.74268791 71.85257374 13.76171875 73.84375 C3.23681162 76.01580974 -8.65227336 76.69671397 -18.25 71.125 C-23.34543022 67.533834 -28.00933675 62.67826414 -29.18359375 56.38671875 C-29.47051894 54.39241155 -29.64790105 52.38310718 -29.8125 50.375 C-28.8125 49.375 -28.8125 49.375 -24.99609375 49.27734375 C-23.41403318 49.28401911 -21.83198841 49.29598125 -20.25 49.3125 C-19.44369141 49.31701172 -18.63738281 49.32152344 -17.80664062 49.32617188 C-15.80856244 49.33799482 -13.81052217 49.35593086 -11.8125 49.375 C-11.57015625 49.92929687 -11.3278125 50.48359375 -11.078125 51.0546875 C-10.74296875 51.77914062 -10.4078125 52.50359375 -10.0625 53.25 C-9.73765625 53.96929688 -9.4128125 54.68859375 -9.078125 55.4296875 C-7.53642629 57.79933552 -6.46552135 58.44285736 -3.8125 59.375 C0.78331714 59.95041125 4.94635785 59.82181117 9.3125 58.25 C11.52183059 56.43738155 11.52183059 56.43738155 11.5 53.1875 C11.3453125 51.7953125 11.3453125 51.7953125 11.1875 50.375 C5.95662829 47.97143876 0.82064904 46.40756798 -4.75 45 C-13.25456623 42.73486963 -21.01195102 40.31436946 -25.8125 32.375 C-28.22343927 25.60140871 -28.7325097 18.84478258 -25.8359375 12.1015625 C-20.01409424 1.99784743 -10.9046701 0.01628778 0 0 Z " fill="#FFFFFF" transform="translate(531.8125,563.625)"/>
<path d="M0 0 C6.27 0 12.54 0 19 0 C19.01981934 1.45817139 19.03963867 2.91634277 19.06005859 4.41870117 C19.13617587 9.83277549 19.22488429 15.2465832 19.31738281 20.66040039 C19.35564716 23.00279473 19.39050446 25.34524733 19.421875 27.68774414 C19.46758025 31.056364 19.52556661 34.42458373 19.5859375 37.79296875 C19.59748871 38.83897751 19.60903992 39.88498627 19.62094116 40.96269226 C19.64081085 41.94333145 19.66068054 42.92397064 19.68115234 43.93432617 C19.69447601 44.79370285 19.70779968 45.65307953 19.7215271 46.53849792 C20.13300871 50.17570226 21.16707238 53.03380396 23.5625 55.8125 C27.25901974 57.61336859 30.95905538 57.54780411 35 57 C37.50751458 56.10510802 38.67764166 55.51678288 40.0953064 53.24407959 C41.1440914 50.64258334 41.27723697 48.66604375 41.31884766 45.86425781 C41.33871735 44.84350159 41.35858704 43.82274536 41.37905884 42.77105713 C41.39061005 41.67613953 41.40216125 40.58122192 41.4140625 39.453125 C41.43342865 38.3267865 41.4527948 37.200448 41.4727478 36.03997803 C41.53251521 32.44339566 41.57891819 28.84678124 41.625 25.25 C41.66318234 22.81118398 41.70223422 20.3723814 41.7421875 17.93359375 C41.83821466 11.95583842 41.92225667 5.97801995 42 0 C48.27 0 54.54 0 61 0 C61.07436593 7.4015078 61.12870504 14.80279625 61.16479492 22.20458984 C61.17984619 24.72057892 61.20029181 27.23654192 61.22631836 29.75244141 C61.26286182 33.37669325 61.27976353 37.000597 61.29296875 40.625 C61.30845261 41.74302002 61.32393646 42.86104004 61.33988953 44.01293945 C61.34190366 53.43942218 59.5737866 60.20425658 53.0234375 67.23828125 C45.79539749 73.53142034 36.27511883 74.61617922 27 74 C17.89194753 73.06788937 11.74597993 70.66273593 5.1875 64.25 C-0.02572537 56.50463659 -0.42262532 48.88163239 -0.29296875 39.74609375 C-0.28872391 38.60463394 -0.28447906 37.46317413 -0.28010559 36.28712463 C-0.26342151 32.6703349 -0.22578766 29.05411902 -0.1875 25.4375 C-0.17243992 22.97331538 -0.15875384 20.50912197 -0.14648438 18.04492188 C-0.11355152 12.02972954 -0.06183991 6.01496179 0 0 Z " fill="#FEFEFE" transform="translate(345,565)"/>
<path d="M0 0 C17.82 0 35.64 0 54 0 C54.495 7.425 54.495 7.425 55 15 C54 16 54 16 50.58178711 16.11352539 C49.06363012 16.11336628 47.54546771 16.10767226 46.02734375 16.09765625 C45.22970108 16.0962413 44.43205841 16.09482635 43.61024475 16.09336853 C41.05262565 16.08775316 38.49509282 16.07519812 35.9375 16.0625 C34.20768355 16.05748698 32.47786574 16.05292373 30.74804688 16.04882812 C26.49866447 16.03777875 22.24934688 16.02050386 18 16 C18 19.96 18 23.92 18 28 C28.56 28 39.12 28 50 28 C50 32.62 50 37.24 50 42 C39.29753477 42.83125944 28.73187415 43.11822138 18 43 C18 47.62 18 52.24 18 57 C30.21 57 42.42 57 55 57 C55 61.95 55 66.9 55 72 C36.85 72 18.7 72 0 72 C0 48.24 0 24.48 0 0 Z " fill="#FFFFFF" transform="translate(573,565)"/>
<path d="M0 0 C1.07253525 -0.00571014 2.1450705 -0.01142029 3.25010681 -0.01730347 C5.02287994 -0.01898026 5.02287994 -0.01898026 6.83146667 -0.02069092 C8.0721843 -0.02565582 9.31290192 -0.03062073 10.59121704 -0.03573608 C14.00043225 -0.0478586 17.409586 -0.05530663 20.81881547 -0.05974674 C22.94858647 -0.06267663 25.07835206 -0.06678131 27.20812035 -0.07125092 C33.87111061 -0.08492863 40.53408855 -0.0945936 47.19709188 -0.09845281 C54.88941814 -0.10293257 62.58156662 -0.12047539 70.27383882 -0.1494534 C76.2187101 -0.17107137 82.16353136 -0.18115717 88.10844153 -0.18249393 C91.6594184 -0.183542 95.21022822 -0.18944994 98.76116371 -0.20731354 C102.72345842 -0.22685821 106.68553114 -0.22250476 110.64787292 -0.21600342 C111.82364899 -0.2252182 112.99942505 -0.23443298 114.21083069 -0.243927 C115.29182541 -0.23835785 116.37282013 -0.2327887 117.48657227 -0.22705078 C118.42328168 -0.22851734 119.35999109 -0.2299839 120.32508564 -0.2314949 C124.14379354 0.31296444 126.67895918 2.23179187 129.7462616 4.45294189 C131.60905928 7.10007545 131.38289822 8.99648553 130.9337616 12.14044189 C128.87746771 14.78223647 127.68239829 15.99402604 124.36001587 16.64380646 C123.38073624 16.64531456 122.4014566 16.64682266 121.39250183 16.64837646 C120.26528717 16.65965576 119.13807251 16.67093506 117.97669983 16.68255615 C116.74436615 16.67445923 115.51203247 16.6663623 114.24235535 16.65802002 C112.94121796 16.6650293 111.64008057 16.67203857 110.29951477 16.67926025 C106.73332944 16.69749177 103.16760712 16.69042718 99.60141373 16.67774391 C95.86900334 16.66761518 92.13663253 16.67700923 88.40422058 16.68328857 C82.13632593 16.69056538 75.86861981 16.68097653 69.60075378 16.66192627 C62.35471328 16.64015728 55.10912297 16.64720864 47.86309338 16.66923189 C41.64130647 16.68738507 35.41965506 16.68994468 29.19785023 16.67947721 C25.4820499 16.67324176 21.76646116 16.67240787 18.05067444 16.68562317 C13.90856778 16.69932573 9.76723694 16.68033351 5.62516785 16.65802002 C4.39283417 16.66611694 3.16050049 16.67421387 1.89082336 16.68255615 C0.20000137 16.66563721 0.20000137 16.66563721 -1.52497864 16.64837646 C-2.50425827 16.64686836 -3.4835379 16.64536026 -4.49249268 16.64380646 C-7.81199573 15.99458918 -9.00480875 14.77313639 -11.0662384 12.14044189 C-11.73598262 8.20569461 -11.41734369 6.66709982 -9.1912384 3.32794189 C-6.05691705 0.10143462 -4.37356917 0.01390572 0 0 Z " fill="#FFFFFF" transform="translate(330.0662384033203,465.85955810546875)"/>
<path d="M0 0 C13.9337962 -0.02254828 27.86758037 -0.04091349 41.80139065 -0.05181217 C48.2706768 -0.05704168 54.73994989 -0.06414056 61.20922852 -0.07543945 C67.446703 -0.08626592 73.68416487 -0.09227632 79.92164803 -0.09487724 C82.30720277 -0.09673193 84.69275679 -0.10035336 87.0783062 -0.10573006 C90.40695591 -0.11293729 93.73555279 -0.11399108 97.06420898 -0.11352539 C98.06114273 -0.11712067 99.05807648 -0.12071594 100.08522034 -0.12442017 C100.98690948 -0.1230455 101.88859863 -0.12167084 102.81761169 -0.12025452 C103.6057447 -0.12117631 104.3938777 -0.1220981 105.20589352 -0.12304783 C107 0 107 0 108 1 C108.495 10.405 108.495 10.405 109 20 C72.7 20 36.4 20 -1 20 C-0.67 13.4 -0.34 6.8 0 0 Z " fill="#000000" transform="translate(336,496)"/>
<path d="M0 0 C7.26 0 14.52 0 22 0 C26.29 8.58 30.58 17.16 35 26 C36.8253125 22.349375 36.8253125 22.349375 38.6875 18.625 C41.79166667 12.41666667 44.89583333 6.20833333 48 0 C54.6 0 61.2 0 68 0 C67.14779548 3.40881808 66.28130488 5.58696451 64.62890625 8.60546875 C64.14139893 9.49693604 63.6538916 10.38840332 63.15161133 11.30688477 C62.36500122 12.73278931 62.36500122 12.73278931 61.5625 14.1875 C60.76138794 15.67624634 60.76138794 15.67624634 59.9440918 17.19506836 C57.49645864 21.69962755 55.04873597 26.07247133 52.015625 30.2109375 C42.80386209 43.10253591 43.64590952 56.68037934 44 72 C37.73 72 31.46 72 25 72 C25.13535156 69.16921875 25.13535156 69.16921875 25.2734375 66.28125 C25.6898304 47.84288979 22.63777204 36.14496837 11.83154297 20.67285156 C9.03912476 16.59775232 6.58979102 12.34056522 4.125 8.0625 C3.31526009 6.69912613 2.50538172 5.33583448 1.6953125 3.97265625 C0 1 0 1 0 0 Z " fill="#FDFDFD" transform="translate(410,565)"/>
<path d="M0 0 C5.94 0 11.88 0 18 0 C18.33 18.48 18.66 36.96 19 56 C29.48623165 55.96040089 29.48623165 55.96040089 39.97241211 55.90991211 C41.26928955 55.90741455 42.56616699 55.90491699 43.90234375 55.90234375 C44.58816528 55.89722778 45.27398682 55.89211182 45.98059082 55.88684082 C47.65415231 55.88652946 49.3275958 55.93777163 51 56 C52 57 52 57 52.09765625 60.37890625 C52.09098369 61.77347077 52.07902532 63.16801743 52.0625 64.5625 C52.05798828 65.27341797 52.05347656 65.98433594 52.04882812 66.71679688 C52.03700864 68.47790013 52.01907263 70.23896036 52 72 C47.52302135 73.11633465 43.13454557 73.14479994 38.55078125 73.1328125 C37.73812302 73.13376923 36.92546478 73.13472595 36.08818054 73.13571167 C34.3710421 73.13639058 32.65390105 73.13455648 30.93676758 73.13037109 C28.33864402 73.12505351 25.74069609 73.13030791 23.14257812 73.13671875 C21.46614546 73.13605724 19.7897129 73.13477458 18.11328125 73.1328125 C16.96742302 73.13584885 16.96742302 73.13584885 15.79841614 73.13894653 C10.15226123 73.11502166 4.60789922 72.64299524 -1 72 C-1.02312524 62.76002448 -1.04091601 53.52005886 -1.05181217 44.28006077 C-1.05704061 39.99000085 -1.06413753 35.69996067 -1.07543945 31.40991211 C-1.08626975 27.273206 -1.09227714 23.13651892 -1.09487724 18.99979973 C-1.09673124 17.41807696 -1.10035136 15.83635529 -1.10573006 14.25464058 C-1.1129424 12.04677162 -1.11399086 9.83898227 -1.11352539 7.63110352 C-1.115746 6.37201675 -1.11796661 5.11292999 -1.12025452 3.81568909 C-1 1 -1 1 0 0 Z " fill="#FFFFFF" transform="translate(639,565)"/>
<path d="M0 0 C6.27 0 12.54 0 19 0 C19 18.81 19 37.62 19 57 C28.24 56.67 37.48 56.34 47 56 C48.65 56.33 50.3 56.66 52 57 C52 61.95 52 66.9 52 72 C41.81124687 72.78470837 31.72409654 73.15938472 21.50683594 73.13037109 C19.21022239 73.12490533 16.91379597 73.13041205 14.6171875 73.13671875 C13.1458329 73.13605956 11.67447843 73.13478171 10.203125 73.1328125 C8.88989258 73.13168457 7.57666016 73.13055664 6.22363281 73.12939453 C3 73 3 73 0 72 C0 48.24 0 24.48 0 0 Z " fill="#FDFDFD" transform="translate(699,565)"/>
<path d="M0 0 C1.636629 2.90129686 1.65302508 4.89030749 1.0546875 8.14453125 C-0.75149921 14.2378163 -3.12633204 19.96469119 -8.625 23.4375 C-10.84321594 23.83863831 -10.84321594 23.83863831 -13.2824707 23.87329102 C-14.20055008 23.89243057 -15.11862946 23.91157013 -16.06452942 23.93128967 C-17.54272408 23.93629738 -17.54272408 23.93629738 -19.05078125 23.94140625 C-20.07173386 23.95139145 -21.09268646 23.96137665 -22.14457703 23.97166443 C-24.3039444 23.98684461 -26.46338206 23.99389025 -28.62280273 23.9934082 C-31.91574111 23.99995673 -35.2056437 24.05440535 -38.49804688 24.11132812 C-40.59894805 24.12013318 -42.69986351 24.12608539 -44.80078125 24.12890625 C-46.26986687 24.16124107 -46.26986687 24.16124107 -47.76863098 24.19422913 C-53.76101469 24.13459905 -57.00402614 23.18767119 -61.32208252 18.95114136 C-64.98074661 14.70075301 -66.41641324 10.05404741 -67.125 4.5625 C-66.625 1.4375 -66.625 1.4375 -64.9058075 -0.22979736 C-62.25607639 -1.7780664 -60.68383714 -1.96121404 -57.63208008 -2.01074219 C-56.14451958 -2.04527496 -56.14451958 -2.04527496 -54.62690735 -2.08050537 C-53.02688118 -2.09479584 -53.02688118 -2.09479584 -51.39453125 -2.109375 C-49.73704109 -2.13985931 -49.73704109 -2.13985931 -48.04606628 -2.17095947 C-45.70684414 -2.21116806 -43.36749192 -2.24433334 -41.02807617 -2.27099609 C-37.4681564 -2.31214564 -33.90913509 -2.37482697 -30.34960938 -2.44140625 C-28.07293671 -2.47783766 -25.79624388 -2.51303344 -23.51953125 -2.546875 C-21.93468681 -2.57331085 -21.93468681 -2.57331085 -20.31782532 -2.60028076 C-4.6406974 -2.76231988 -4.6406974 -2.76231988 0 0 Z " fill="#FFFFFF" transform="translate(422.625,433.5625)"/>
<path d="M0 0 C3.51341696 3.51341696 4.93645616 6.64358409 5.5625 11.5625 C5.00398586 16.11040088 3.7131049 18.35376144 1.125 22.125 C-2.28182564 24.39621709 -3.45297184 24.36968887 -7.44799805 24.35205078 C-8.58895432 24.35189972 -9.72991058 24.35174866 -10.90544128 24.35159302 C-12.13676285 24.34127045 -13.36808441 24.33094788 -14.63671875 24.3203125 C-16.52811333 24.31606766 -16.52811333 24.31606766 -18.4577179 24.31173706 C-21.80660422 24.30243125 -25.15521791 24.28446703 -28.50402832 24.2623291 C-31.92258347 24.24185386 -35.3411668 24.23273176 -38.75976562 24.22265625 C-45.46491919 24.2005818 -52.16994385 24.16709362 -58.875 24.125 C-58.41042153 22.51340603 -57.94088272 20.90324141 -57.46923828 19.29370117 C-57.20829376 18.39689133 -56.94734924 17.50008148 -56.67849731 16.57609558 C-54.0761545 8.63756131 -46.84909324 2.34443572 -39.875 -1.875 C-26.66055115 -8.3859092 -12.26506526 -7.9989556 0 0 Z " fill="#FFFFFF" transform="translate(633.875,412.875)"/>
<path d="M0 0 C1.71993164 -0.08121094 1.71993164 -0.08121094 3.47460938 -0.1640625 C11.07385952 -0.2858593 14.4591223 0.84088152 20.04956055 5.89697266 C24.24220894 8.86697259 28.8998413 8.49347465 33.875 8.4375 C35.38803711 8.46166992 35.38803711 8.46166992 36.93164062 8.48632812 C39.39333977 8.52132859 41.85080838 8.52529903 44.3125 8.5 C45.51080067 11.89518524 45.368796 13.34997817 44.08569336 16.76928711 C40.43380156 20.36523831 38.19269833 20.21096737 33.21180725 20.25672913 C32.13257492 20.23517258 31.05334259 20.21361603 29.94140625 20.19140625 C28.82692612 20.19003159 27.71244598 20.18865692 26.56419373 20.1872406 C24.20798153 20.17818027 21.85178696 20.15454187 19.49584961 20.11743164 C15.89176659 20.06275436 12.29000085 20.05590196 8.68554688 20.05664062 C6.39581337 20.04189025 4.10609552 20.02440315 1.81640625 20.00390625 C0.2005941 19.99889854 0.2005941 19.99889854 -1.44786072 19.99378967 C-10.87227764 19.81480124 -10.87227764 19.81480124 -14.6875 16.5 C-17.03869399 12.97320901 -16.90193452 11.47120515 -16.8125 7.3125 C-16.79445313 6.22582031 -16.77640625 5.13914062 -16.7578125 4.01953125 C-16.73460937 3.18808594 -16.71140625 2.35664063 -16.6875 1.5 C-11.24352536 -0.0885351 -5.62816173 0.11200322 0 0 Z " fill="#FFFFFF" transform="translate(524.6875,417.5)"/>
<path d="M0 0 C2.97 0 5.94 0 9 0 C9 4.29 9 8.58 9 13 C12.96 13 16.92 13 21 13 C21 8.71 21 4.42 21 0 C27.93359375 -0.09765625 27.93359375 -0.09765625 30 0 C31 1 31 1 31.11352539 4.05102539 C31.11336634 5.39991271 31.10767612 6.74880614 31.09765625 8.09765625 C31.0962413 8.80651474 31.09482635 9.51537323 31.09336853 10.24571228 C31.08775443 12.51801712 31.07519963 14.79022475 31.0625 17.0625 C31.05748681 18.59960796 31.05292359 20.13671745 31.04882812 21.67382812 C31.03778042 25.44925642 31.02050641 29.22461171 31 33 C27.7 33 24.4 33 21 33 C21 28.71 21 24.42 21 20 C17.04 20 13.08 20 9 20 C9 24.29 9 28.58 9 33 C6.03 33 3.06 33 0 33 C0 22.11 0 11.22 0 0 Z " fill="#FFFFFF" transform="translate(451,655)"/>
<path d="M0 0 C2.90707994 2.75799891 3.25839375 4.37216251 3.4375 8.3125 C2.00094146 8.39381463 0.5630517 8.45183559 -0.875 8.5 C-1.67550781 8.53480469 -2.47601562 8.56960938 -3.30078125 8.60546875 C-6.08443931 8.24489128 -6.67505987 7.28382636 -8.5625 5.3125 C-11.71171909 5.54533149 -11.71171909 5.54533149 -14.5625 6.3125 C-14.2325 7.3025 -13.9025 8.2925 -13.5625 9.3125 C-10.43629934 10.50254536 -7.3266675 11.43201809 -4.109375 12.33007812 C-1.0871347 13.23851417 1.11087758 13.99112453 3.3828125 16.2265625 C5.05507362 19.53392337 5.2145809 22.75205662 4.4375 26.3125 C2.26175584 29.00355198 0.52684144 30.76782928 -2.5625 32.3125 C-15.94722635 33.35925424 -15.94722635 33.35925424 -20.3125 30.5 C-22.5625 28.3125 -22.5625 28.3125 -24.5625 25.3125 C-24.5625 23.9925 -24.5625 22.6725 -24.5625 21.3125 C-21.5925 21.3125 -18.6225 21.3125 -15.5625 21.3125 C-15.2325 22.3025 -14.9025 23.2925 -14.5625 24.3125 C-9.94742226 25.35464691 -9.94742226 25.35464691 -5.5625 24.3125 C-5.5625 23.3225 -5.5625 22.3325 -5.5625 21.3125 C-6.38234375 21.04695312 -7.2021875 20.78140625 -8.046875 20.5078125 C-9.12453125 20.15460937 -10.2021875 19.80140625 -11.3125 19.4375 C-12.37984375 19.08945312 -13.4471875 18.74140625 -14.546875 18.3828125 C-21.05571267 16.072681 -21.05571267 16.072681 -23.5625 12.3125 C-24.16393397 9.22436786 -24.19040328 6.3978868 -23.5625 3.3125 C-17.91713112 -4.49570501 -7.8398999 -3.71363679 0 0 Z " fill="#FFFFFF" transform="translate(642.5625,656.6875)"/>
<path d="M0 0 C8.58 0 17.16 0 26 0 C26 2.31 26 4.62 26 7 C20.39 7 14.78 7 9 7 C9 8.98 9 10.96 9 13 C13.95 13 18.9 13 24 13 C24 14.98 24 16.96 24 19 C23 20 23 20 19.83984375 20.09765625 C18.55207031 20.08605469 17.26429688 20.07445312 15.9375 20.0625 C14.64714844 20.05347656 13.35679687 20.04445313 12.02734375 20.03515625 C11.02832031 20.02355469 10.02929688 20.01195312 9 20 C9.33 21.98 9.66 23.96 10 26 C11.14339844 25.98839844 12.28679687 25.97679687 13.46484375 25.96484375 C14.95572754 25.95546712 16.44661309 25.94636679 17.9375 25.9375 C18.69224609 25.92912109 19.44699219 25.92074219 20.22460938 25.91210938 C22.14994313 25.90347559 24.07535581 25.94775667 26 26 C27 27 27 27 27.0625 29.5625 C27.041875 30.366875 27.02125 31.17125 27 32 C23.09781143 33.82824761 20.04431054 34.24455002 15.75 34.1875 C14.69296875 34.18105469 13.6359375 34.17460938 12.546875 34.16796875 C8.35120381 33.96927507 4.17468271 33.46385363 0 33 C0 22.11 0 11.22 0 0 Z " fill="#FFFFFF" transform="translate(415,655)"/>
<path d="M0 0 C8.25 0 16.5 0 25 0 C25 2.31 25 4.62 25 7 C19.72 7 14.44 7 9 7 C9 8.98 9 10.96 9 13 C13.62 13 18.24 13 23 13 C23 15.31 23 17.62 23 20 C18.38 20 13.76 20 9 20 C9 22.31 9 24.62 9 27 C10.14339844 26.91621094 11.28679688 26.83242188 12.46484375 26.74609375 C13.95571002 26.64295206 15.44659653 26.54010253 16.9375 26.4375 C17.69224609 26.38142578 18.44699219 26.32535156 19.22460938 26.26757812 C21.14745958 26.13823843 23.07389548 26.06483088 25 26 C26 27 26 27 26.125 30 C26 33 26 33 25 34 C23.23140807 34.09946453 21.45888549 34.13080217 19.6875 34.1328125 C18.61242187 34.13410156 17.53734375 34.13539063 16.4296875 34.13671875 C15.29789063 34.13285156 14.16609375 34.12898437 13 34.125 C11.86820313 34.12886719 10.73640625 34.13273438 9.5703125 34.13671875 C8.49523437 34.13542969 7.42015625 34.13414062 6.3125 34.1328125 C5.31863281 34.13168457 4.32476563 34.13055664 3.30078125 34.12939453 C1 34 1 34 0 33 C-0.08843793 30.55169574 -0.11528752 28.13179401 -0.09765625 25.68359375 C-0.0962413 24.95253922 -0.09482635 24.22148468 -0.09336853 23.46827698 C-0.08775408 21.12464368 -0.07519922 18.78110461 -0.0625 16.4375 C-0.05748686 14.85221492 -0.05292363 13.26692834 -0.04882812 11.68164062 C-0.03862921 7.78769457 -0.01905687 3.89395323 0 0 Z " fill="#FFFFFF" transform="translate(585,655)"/>
<path d="M0 0 C3.23094676 2.99453602 4.17679595 5.21788785 5.5625 9.375 C5.5625 10.035 5.5625 10.695 5.5625 11.375 C2.2625 11.375 -1.0375 11.375 -4.4375 11.375 C-4.7675 9.725 -5.0975 8.075 -5.4375 6.375 C-8.4075 6.375 -11.3775 6.375 -14.4375 6.375 C-17.37212112 12.24424225 -17.07258464 18.039047 -15.4375 24.375 C-12.4675 24.375 -9.4975 24.375 -6.4375 24.375 C-5.7775 22.725 -5.1175 21.075 -4.4375 19.375 C-1.1375 19.375 2.1625 19.375 5.5625 19.375 C5.28940064 23.28942413 4.81257787 25.0776101 2.25 28.125 C-2.94680909 32.47581691 -6.83109809 32.81776451 -13.5234375 32.6875 C-18.78318339 32.12345218 -21.21684903 29.59565097 -24.8125 26 C-27.57864362 19.82937193 -27.71635021 12.50561779 -25.70703125 6.015625 C-23.39812256 1.60513819 -20.25805721 -0.73836915 -15.5859375 -2.20703125 C-10.19214279 -3.25636949 -4.90901699 -2.32062622 0 0 Z " fill="#FFFFFF" transform="translate(538.4375,656.625)"/>
<path d="M0 0 C3.66061645 1.83030823 5.55189 3.37842807 7.9375 6.6875 C9.34761292 11.08373439 9.3249862 14.57520042 8 19 C4.77306007 23.36585991 1.15533209 25.40006935 -4 27 C-9.45186694 26.90435321 -12.79624807 25.4394334 -17 22 C-19.88602816 18.53676621 -20.53457148 15.51239915 -20.35546875 10.9921875 C-19.59940399 6.75490147 -17.08061217 3.94962887 -13.9375 1.1875 C-9.28680003 -1.66292902 -5.12969057 -1.12239384 0 0 Z " fill="#FFFFFF" transform="translate(455,431)"/>
<path d="M0 0 C3.12972728 3.88844905 3.52394694 7.36592133 3.4765625 12.20703125 C2.74002067 16.39698147 0.23190699 18.88594338 -2.9375 21.5625 C-6.74592627 24.03283055 -10.35118607 23.78333395 -14.71875 23.171875 C-19.05310305 21.98145409 -21.61655371 19.30374738 -24.3125 15.75 C-25.77545646 10.62965237 -25.62342776 6.90895078 -23.25 2.25 C-20.34007733 -1.13180202 -17.80370637 -2.78180587 -13.625 -4.25 C-8.19555917 -4.6287982 -4.19339878 -3.47962877 0 0 Z " fill="#FFFFFF" transform="translate(340.9375,434.4375)"/>
<path d="M0 0 C2.97 0 5.94 0 9 0 C11.31 6.93 13.62 13.86 16 21 C17.93308351 14.46404954 17.93308351 14.46404954 19.85913086 7.92602539 C20.22083374 6.71160767 20.22083374 6.71160767 20.58984375 5.47265625 C20.83597412 4.64000244 21.08210449 3.80734863 21.33569336 2.94946289 C22 1 22 1 23 0 C25.67058851 -0.14115161 28.32432238 -0.04247107 31 0 C30.43763872 4.70362087 29.5103547 8.9073057 27.93359375 13.37109375 C27.53076172 14.52158203 27.12792969 15.67207031 26.71289062 16.85742188 C26.29201172 18.03884766 25.87113281 19.22027344 25.4375 20.4375 C25.01275391 21.64599609 24.58800781 22.85449219 24.15039062 24.09960938 C23.1060029 27.06848683 22.05572123 30.03513782 21 33 C12.92379427 34.39780484 12.92379427 34.39780484 10 33 C8.62792969 30.2878418 8.62792969 30.2878418 7.421875 26.69921875 C7.20557434 26.06643509 6.98927368 25.43365143 6.76641846 24.7816925 C6.31185858 23.44175961 5.86516955 22.09913469 5.42578125 20.75415039 C4.75419396 18.70032582 4.05914781 16.65569962 3.359375 14.61132812 C0 4.63386171 0 4.63386171 0 0 Z " fill="#FFFFFF" transform="translate(376,655)"/>
<path d="M0 0 C2.97 0 5.94 0 9 0 C9 8.58 9 17.16 9 26 C13.95 26 18.9 26 24 26 C24 28.64 24 31.28 24 34 C20.18751574 34.02887236 16.3750593 34.04675492 12.5625 34.0625 C11.47388672 34.07087891 10.38527344 34.07925781 9.26367188 34.08789062 C8.22919922 34.09111328 7.19472656 34.09433594 6.12890625 34.09765625 C5.17056885 34.10289307 4.21223145 34.10812988 3.22485352 34.11352539 C1 34 1 34 0 33 C-0.08843793 30.55169574 -0.11528752 28.13179401 -0.09765625 25.68359375 C-0.0962413 24.95253922 -0.09482635 24.22148468 -0.09336853 23.46827698 C-0.08775408 21.12464368 -0.07519922 18.78110461 -0.0625 16.4375 C-0.05748686 14.85221492 -0.05292363 13.26692834 -0.04882812 11.68164062 C-0.03777997 7.7877239 -0.02050572 3.89387795 0 0 Z " fill="#FFFFFF" transform="translate(553,655)"/>
<path d="M0 0 C16.01779065 -0.36822507 16.01779065 -0.36822507 21 2 C22.9188855 4.84834566 22.99946996 6.01510602 22.875 9.5625 C22 13 22 13 20.5234375 14.703125 C16.67094337 16.68304458 13.01027333 16.3173052 8.75 16.1875 C7.90953125 16.17396484 7.0690625 16.16042969 6.203125 16.14648438 C4.13514062 16.11123464 2.06748729 16.0574302 0 16 C0 10.72 0 5.44 0 0 Z " fill="#000000" transform="translate(293,606)"/>
<path d="M0 0 C2.97 0 5.94 0 9 0 C9 10.89 9 21.78 9 33 C6.03 33 3.06 33 0 33 C0 22.11 0 11.22 0 0 Z " fill="#FFFFFF" transform="translate(493,655)"/>
<path d="M0 0 C1.89492188 0.15275391 1.89492188 0.15275391 3.828125 0.30859375 C4.79234375 0.39238281 5.7565625 0.47617187 6.75 0.5625 C0.09620335 14.88939833 0.09620335 14.88939833 -5.25 17.5625 C-8.41956698 17.83811452 -10.62553788 17.83253767 -13.5625 16.5625 C-15.64650612 14.09256682 -16.22422028 11.83744563 -16.484375 8.6328125 C-16.04727475 4.77176029 -14.07703318 3.13824134 -11.25 0.5625 C-7.55106991 -0.913717 -3.89972919 -0.32497743 0 0 Z " fill="#FFFFFF" transform="translate(318.25,401.4375)"/>
<path d="M0 0 C2.4375 1.6875 2.4375 1.6875 4.4375 4.6875 C4.77271079 7.70439707 4.99696915 9.78525379 4.4375 12.6875 C2.375 15.25 2.375 15.25 -0.5625 16.6875 C-4.15402936 16.8834016 -6.40072032 16.67501273 -9.203125 14.29296875 C-12.52578359 10.57595422 -17.5625 4.82698908 -17.5625 -0.3125 C-11.81719711 -2.22760096 -5.65913455 -2.08494431 0 0 Z " fill="#FFFFFF" transform="translate(473.5625,402.3125)"/>
<path d="M0 0 C2.58445773 -0.1081866 5.16437352 -0.18737237 7.75 -0.25 C8.47960937 -0.28351562 9.20921875 -0.31703125 9.9609375 -0.3515625 C13.53084849 -0.41646997 15.56841859 -0.31757878 18.484375 1.828125 C20.54909509 4.7868476 20.58903864 6.46576814 20 10 C18.484375 12.171875 18.484375 12.171875 16 14 C13.10550051 14.2906124 10.62050065 14.38186045 7.75 14.25 C6.63238281 14.22292969 6.63238281 14.22292969 5.4921875 14.1953125 C3.66090299 14.14835649 1.83028351 14.07661652 0 14 C0 9.38 0 4.76 0 0 Z " fill="#000000" transform="translate(293,580)"/>
</svg>
